<?xml version="1.0" encoding="UTF-8" standalone="no"?>
<!-- Created with Inkscape (http://www.inkscape.org/) -->

<svg
   xmlns:dc="http://purl.org/dc/elements/1.1/"
   xmlns:cc="http://creativecommons.org/ns#"
   xmlns:rdf="http://www.w3.org/1999/02/22-rdf-syntax-ns#"
   xmlns:svg="http://www.w3.org/2000/svg"
   xmlns="http://www.w3.org/2000/svg"
   xmlns:sodipodi="http://sodipodi.sourceforge.net/DTD/sodipodi-0.dtd"
   xmlns:inkscape="http://www.inkscape.org/namespaces/inkscape"
   version="1.1"
   id="svg8448"
   xml:space="preserve"
   width="666.66669"
   height="666.66669"
   viewBox="0 0 666.66669 666.66669"
   sodipodi:docname="earth-planet-publicdomainvectors.org.svg"
   inkscape:version="0.92.4 (5da689c313, 2019-01-14)"><metadata
     id="metadata8454"><rdf:RDF><cc:Work
         rdf:about=""><dc:format>image/svg+xml</dc:format><dc:type
           rdf:resource="http://purl.org/dc/dcmitype/StillImage" /><dc:title></dc:title></cc:Work></rdf:RDF></metadata><defs
     id="defs8452"><clipPath
       clipPathUnits="userSpaceOnUse"
       id="clipPath8464"><path
         d="M 0,500 H 500 V 0 H 0 Z"
         id="path8462"
         inkscape:connector-curvature="0" /></clipPath><clipPath
       clipPathUnits="userSpaceOnUse"
       id="clipPath8486"><path
         d="M 161.22,382.61 H 401 V 115 H 161.22 Z"
         id="path8484"
         inkscape:connector-curvature="0" /></clipPath><clipPath
       clipPathUnits="userSpaceOnUse"
       id="clipPath8500"><path
         d="M 119,397 H 328.2 V 159.35 H 119 Z"
         id="path8498"
         inkscape:connector-curvature="0" /></clipPath><clipPath
       clipPathUnits="userSpaceOnUse"
       id="clipPath8556"><path
         d="m 330.96,135.14 h 83.69 V 99.3096 h -83.69 z"
         id="path8554"
         inkscape:connector-curvature="0" /></clipPath><clipPath
       clipPathUnits="userSpaceOnUse"
       id="clipPath8570"><path
         d="m 338.43,107.19 h 63.62 V 89 h -63.62 z"
         id="path8568"
         inkscape:connector-curvature="0" /></clipPath><clipPath
       clipPathUnits="userSpaceOnUse"
       id="clipPath8584"><path
         d="m 335.58,166.9 h 79.69 v -36.45 h -79.69 z"
         id="path8582"
         inkscape:connector-curvature="0" /></clipPath><clipPath
       clipPathUnits="userSpaceOnUse"
       id="clipPath8598"><path
         d="m 363.62,173.31 h 49.65 v -29.675 h -49.65 z"
         id="path8596"
         inkscape:connector-curvature="0" /></clipPath><clipPath
       clipPathUnits="userSpaceOnUse"
       id="clipPath8612"><path
         d="m 345.667,116.324 h 17.412 v -14.801 h -17.412 z"
         id="path8610"
         inkscape:connector-curvature="0" /></clipPath><clipPath
       clipPathUnits="userSpaceOnUse"
       id="clipPath8626"><path
         d="M 392.29,108.76 H 406.9 V 93.96 H 392.29 Z"
         id="path8624"
         inkscape:connector-curvature="0" /></clipPath></defs><sodipodi:namedview
     pagecolor="#ffffff"
     bordercolor="#666666"
     borderopacity="1"
     objecttolerance="10"
     gridtolerance="10"
     guidetolerance="10"
     inkscape:pageopacity="0"
     inkscape:pageshadow="2"
     inkscape:window-width="1920"
     inkscape:window-height="1018"
     id="namedview8450"
     showgrid="false"
     inkscape:zoom="0.99849166"
     inkscape:cx="365.81922"
     inkscape:cy="314.97176"
     inkscape:window-x="-8"
     inkscape:window-y="-8"
     inkscape:window-maximized="1"
     inkscape:current-layer="g8456" /><g
     id="g8456"
     inkscape:groupmode="layer"
     inkscape:label="earth-planet-publicdomainvectors.org"
     transform="matrix(1.3333333,0,0,-1.3333333,0,666.66667)"><g
       id="g8458"><g
         id="g8460"
         clip-path="url(#clipPath8464)"><path
           d="M 500,0 H 0 v 500 h 500 z"
           style="fill:#193441;fill-opacity:1;fill-rule:nonzero;stroke:none"
           id="path8466"
           inkscape:connector-curvature="0" /><path
           d="m 211,149.308 c -3.092,16.74 -17.756,29.423 -35.391,29.423 -7.592,0 -14.631,-2.355 -20.437,-6.368 -5.736,13.034 -18.756,22.14 -33.911,22.14 -13.561,0 -25.414,-7.292 -31.867,-18.164 -4.045,2.349 -8.73,3.717 -13.744,3.717 -15.149,0 -27.43,-12.281 -27.43,-27.43 0,-1.125 0.089,-2.229 0.22,-3.318 z"
           style="fill:#ffffff;fill-opacity:1;fill-rule:nonzero;stroke:none"
           id="path8468"
           inkscape:connector-curvature="0" /><path
           d="m 200.74,360.047 c -1.673,6.351 -7.453,11.036 -14.33,11.036 -0.109,0 -0.216,-0.006 -0.324,-0.008 -0.182,8.741 -7.321,15.773 -16.107,15.773 -4.299,0 -8.202,-1.687 -11.092,-4.431 -2.186,2.333 -5.286,3.8 -8.737,3.8 -6.245,0 -11.369,-4.779 -11.926,-10.879 -0.637,0.095 -1.284,0.159 -1.947,0.159 -7.314,0 -13.243,-5.929 -13.243,-13.243 0,-0.753 0.078,-1.487 0.198,-2.207 z"
           style="fill:#ffffff;fill-opacity:1;fill-rule:nonzero;stroke:none"
           id="path8470"
           inkscape:connector-curvature="0" /><path
           d="m 401,256 c 0,-14.43 -2.17,-28.35 -6.19,-41.46 C 377.1,156.9 323.44,115 260,115 c -29.11,0 -56.14,8.82 -78.6,23.93 0,0 -0.01,0 -0.03,0.01 C 143.75,164.27 119,207.24 119,256 c 0,30.63 9.77,58.97 26.35,82.09 7.89,11 17.32,20.82 27.99,29.14 23.91,18.66 53.98,29.77 86.66,29.77 42.3,0 80.26,-18.63 106.1,-48.14 19.08,-21.78 31.57,-49.49 34.32,-80.02 0.38,-4.23 0.58,-8.51 0.58,-12.84"
           style="fill:#29abe2;fill-opacity:1;fill-rule:nonzero;stroke:none"
           id="path8472"
           inkscape:connector-curvature="0" /><path
           d="m 360.543,344.781 c -0.23,-0.166 -0.437,-0.316 -0.619,-0.447 -0.608,-0.438 -1.284,-0.76 -2.008,-0.952 -5.416,-1.438 -29.447,-7.788 -33.586,-8.382 -3.49,-0.502 -1.752,-4.741 -0.659,-6.836 0.443,-0.852 0.659,-1.804 0.659,-2.765 v -12.412 c 0,-2.752 -1.835,-5.166 -4.487,-5.902 l -6.709,-1.862 C 312.601,305.075 312.05,305 311.496,305 h -28.492 c -1.302,0 -2.57,-0.415 -3.62,-1.185 -3.765,-2.759 -3.184,-8.545 1.054,-10.501 L 297,285.67 l 9.003,-4.698 c 3.321,-1.733 4.323,-6.012 2.115,-9.038 C 304.029,266.33 298.262,258.314 297,256 c -1.548,-2.84 2.493,-9.868 4.399,-12.9 0.612,-0.973 0.931,-2.096 0.931,-3.246 V 225.67 208.33 c 0,-2.386 -16.095,-16.586 -19.408,-19.483 -0.392,-0.343 -0.824,-0.633 -1.29,-0.866 l -13.17,-6.585 c -1.371,-0.686 -2.949,-0.833 -4.423,-0.411 l -9.154,2.619 c -2.849,0.814 -4.707,3.542 -4.411,6.491 0.897,8.968 3.071,27.738 6.526,39.575 2.341,8.018 1.499,13.106 0.076,16.186 -1.214,2.629 -4.208,3.938 -7.013,3.219 l -17.733,-4.551 c -2.068,-0.53 -4.264,0.054 -5.794,1.543 l -9.702,9.442 c -0.334,0.326 -0.631,0.69 -0.884,1.083 l -9.981,15.567 c -0.633,0.987 -0.969,2.134 -0.969,3.306 v 8.613 c 0,2.875 1.999,5.363 4.806,5.982 l 30.333,6.686 c 2.448,0.54 4.296,2.531 4.692,5.006 0.334,2.083 0.834,4.248 1.499,4.578 0.837,0.419 2.06,2.915 2.86,4.732 0.591,1.34 1.634,2.425 2.958,3.052 2.047,0.968 5.201,2.216 7.852,2.216 4.33,0 3.67,0.67 3.67,0.67 0,0 -2.67,20 -3.67,23.33 -0.604,2.02 -2.062,1.597 -3.118,0.947 -0.669,-0.411 -1.23,-0.97 -1.684,-1.61 -1.566,-2.212 -6.627,-9.417 -8.868,-13.337 -2.66,-4.66 -9.33,-9.33 -11.33,-12 -2,-2.66 -9.33,-2 -12.67,-2 -2.59,0 -4.781,2.021 -5.626,2.919 -0.294,0.311 -0.624,0.581 -0.975,0.825 -1.793,1.241 -7.078,5.187 -8.729,9.596 -2,5.33 20.67,6 24,9.33 2.286,2.286 1.434,7.714 0.674,10.894 -0.362,1.518 -1.29,2.835 -2.595,3.69 -3.627,2.378 -11.747,7.753 -18.749,12.746 -9.33,6.67 6.67,-5.33 9.34,-6.66 2.015,-1.015 -15.851,-18.084 -24.64,-26.308 -2.616,-2.448 -6.772,-2.143 -8.985,0.675 -3.516,4.48 -7.98,11.106 -8.375,16.293 -0.207,2.718 -1.605,9.255 -3.417,17.026 -0.559,2.398 0.376,4.895 2.36,6.353 C 199.968,386.87 228.794,397 260,397 c 39.779,0 75.72,-16.476 101.353,-42.981 2.595,-2.685 2.214,-7.048 -0.81,-9.238"
           style="fill:#f7931e;fill-opacity:1;fill-rule:nonzero;stroke:none"
           id="path8474"
           inkscape:connector-curvature="0" /><path
           d="m 181.4,138.93 c 0,0 -0.01,0 -0.03,0.01 C 143.75,164.27 119,207.24 119,256 c 0,30.63 9.77,58.97 26.35,82.09 l 0.01,-0.01 v -21.75 c 0,0 -3.03,-3.33 -3.03,-6 0,-2.66 -9.33,-2.66 -10.66,-6 -1.34,-3.33 -3.34,-26.66 -3.34,-26.66 L 123,269 167.72,239.67 c 0,0 -4.05,-18 -5.39,-18 -1.33,0 0,-15.34 0,-15.34 V 191 c 0,0 -0.04,-28 5.34,-28 8,0 13.73,-24.07 13.73,-24.07"
           style="fill:#f7931e;fill-opacity:1;fill-rule:nonzero;stroke:none"
           id="path8476"
           inkscape:connector-curvature="0" /><path
           d="m 401,256 c 0,-14.43 -2.17,-28.35 -6.19,-41.46 l -3.81,0.79 c 0,0 -5.33,-7.66 -17.33,-21 -12,-13.33 -10.59,-6 -10.59,-6 L 355.67,201 c 0,0 12,10.67 9.63,13.33 -2.38,2.67 -16.3,10 -17.63,16.67 -1.34,6.67 15.41,10.67 15.41,10.67 l 19.92,2.66 c 0,0 -8.67,14.67 -7.33,19.34 1.33,4.66 14.66,7.33 14.66,7.33 l 10.09,-2.16 C 400.8,264.61 401,260.33 401,256"
           style="fill:#f7931e;fill-opacity:1;fill-rule:nonzero;stroke:none"
           id="path8478"
           inkscape:connector-curvature="0" /><g
           id="g8480"><g
             id="g8482" /><g
             id="g8492"><g
               clip-path="url(#clipPath8486)"
               id="g8490"
               style="opacity:0.5"><path
                 d="m 401,256 c 0,-14.43 -2.17,-28.35 -6.19,-41.46 C 377.1,156.9 323.44,115 260,115 c -29.11,0 -56.14,8.82 -78.6,23.93 0,0 -0.01,0 -0.03,0.01 -7.22,4.86 -13.96,10.37 -20.15,16.45 18.74,-9.22 39.81,-14.39 62.11,-14.39 63.44,0 117.1,41.9 134.81,99.54 4.02,13.11 6.19,27.03 6.19,41.46 0,4.33 -0.2,8.61 -0.58,12.84 -2.75,30.53 -15.24,58.24 -34.32,80.02 -0.41,0.46 -0.81,0.93 -1.23,1.38 -1.96,2.19 -3.98,4.31 -6.08,6.37 0.16,-0.07 0.31,-0.15 0.45,-0.22 0.9,-0.44 1.79,-0.9 2.67,-1.36 0.94,-0.49 1.87,-0.99 2.79,-1.5 0.21,-0.11 0.42,-0.23 0.63,-0.35 0.7,-0.39 1.39,-0.78 2.07,-1.18 0.33,-0.19 0.66,-0.38 0.98,-0.57 0.74,-0.44 1.47,-0.88 2.2,-1.33 1.04,-0.65 2.08,-1.31 3.11,-1.98 0.35,-0.23 0.7,-0.46 1.05,-0.7 0.17,-0.1 0.33,-0.21 0.49,-0.32 0.55,-0.36 1.1,-0.74 1.64,-1.12 0.96,-0.66 1.9,-1.33 2.84,-2.02 0.02,-0.01 0.03,-0.02 0.05,-0.03 0.92,-0.68 1.84,-1.36 2.74,-2.06 0.07,-0.05 0.14,-0.1 0.2,-0.15 0.85,-0.66 1.7,-1.33 2.54,-2.01 0.85,-0.68 1.69,-1.38 2.52,-2.09 0.22,-0.18 0.44,-0.36 0.65,-0.55 0.66,-0.57 1.32,-1.14 1.97,-1.72 0.27,-0.23 0.53,-0.47 0.79,-0.71 0.58,-0.52 1.16,-1.05 1.73,-1.59 0.15,-0.13 0.29,-0.27 0.44,-0.41 0.77,-0.72 1.52,-1.45 2.27,-2.19 0.73,-0.72 1.45,-1.44 2.17,-2.18 0.11,-0.12 0.22,-0.23 0.33,-0.34 0.74,-0.77 1.47,-1.54 2.2,-2.33 0.11,-0.12 0.22,-0.24 0.32,-0.35 0.72,-0.79 1.44,-1.58 2.14,-2.39 0.64,-0.73 1.27,-1.47 1.89,-2.21 l 0.03,-0.03 c 18,-21.42 29.74,-48.29 32.4,-77.78 0.38,-4.23 0.58,-8.51 0.58,-12.84"
                 style="fill:#cccccc;fill-opacity:1;fill-rule:nonzero;stroke:none"
                 id="path8488"
                 inkscape:connector-curvature="0" /></g></g></g><g
           id="g8494"><g
             id="g8496" /><g
             id="g8506"><g
               clip-path="url(#clipPath8500)"
               id="g8504"
               style="opacity:0.10000598"><path
                 d="m 322.12,382.61 c 2.1,-2.06 4.12,-4.18 6.08,-6.37 C 309.27,385.69 287.92,391 265.33,391 232.65,391 202.58,379.89 178.67,361.23 168,352.91 158.57,343.09 150.68,332.09 134.1,308.97 124.33,280.63 124.33,250 c 0,-34.52 12.4,-66.14 33,-90.65 C 133.57,184.59 119,218.59 119,256 c 0,30.63 9.77,58.97 26.35,82.09 7.89,11 17.32,20.82 27.99,29.14 23.91,18.66 53.98,29.77 86.66,29.77 22.29,0 43.38,-5.17 62.12,-14.39"
                 style="fill:#f2f2f2;fill-opacity:1;fill-rule:nonzero;stroke:none"
                 id="path8502"
                 inkscape:connector-curvature="0" /></g></g></g><path
           d="m 119.808,399.392 c 0.183,0.076 0.365,0.151 0.546,0.232 -3.948,-5.338 -9.355,-9.704 -15.935,-12.42 -19.27,-7.956 -41.34,1.22 -49.296,20.49 -7.956,19.269 1.213,41.343 20.482,49.299 6.581,2.716 13.492,3.437 20.056,2.439 -0.185,-0.07 -0.368,-0.145 -0.551,-0.221 -16.516,-6.819 -24.38,-25.741 -17.56,-42.258 6.819,-16.516 25.741,-24.38 42.258,-17.561"
           style="fill:#ffd34e;fill-opacity:1;fill-rule:nonzero;stroke:none"
           id="path8508"
           inkscape:connector-curvature="0" /><path
           d="m 452.088,299.84 c -0.049,0 -0.097,-0.007 -0.146,-0.007 -1.245,11.283 -10.8,20.062 -22.415,20.062 -0.875,0 -1.735,-0.062 -2.584,-0.16 0.144,0.944 0.242,1.903 0.242,2.887 0,10.556 -8.558,19.113 -19.114,19.113 -7.976,0 -14.804,-4.889 -17.669,-11.831 -0.607,0.051 -1.216,0.093 -1.837,0.093 -10.442,0 -19.16,-7.342 -21.301,-17.142 -11.38,-3.432 -19.67,-13.991 -19.67,-26.49 0,-1.728 0.166,-3.415 0.469,-5.055 H 473 c -1.262,10.438 -10.135,18.53 -20.912,18.53"
           style="fill:#ffffff;fill-opacity:1;fill-rule:nonzero;stroke:none"
           id="path8510"
           inkscape:connector-curvature="0" /><path
           d="m 374.918,387.813 c -0.031,0 -0.061,-0.005 -0.092,-0.005 -0.778,7.058 -6.757,12.55 -14.022,12.55 -0.547,0 -1.085,-0.039 -1.616,-0.1 0.089,0.591 0.15,1.191 0.15,1.806 0,6.604 -5.353,11.957 -11.956,11.957 -4.404,0 -8.246,-2.384 -10.32,-5.93 -2.081,1.114 -4.457,1.749 -6.981,1.749 -8.028,0 -14.56,-6.387 -14.802,-14.356 -1.095,0.243 -2.233,0.375 -3.402,0.375 -8.641,0 -15.646,-7.004 -15.646,-15.645 0,-1.381 0.181,-2.719 0.517,-3.994 h 13.093 68.733 9.426 c -0.789,6.53 -6.34,11.593 -13.082,11.593"
           style="fill:#ffffff;fill-opacity:1;fill-rule:nonzero;stroke:none"
           id="path8512"
           inkscape:connector-curvature="0" /><path
           d="m 221.193,446.177 c -10.368,-1.831 -11.852,-3.315 -13.683,-13.684 -1.831,10.369 -3.315,11.853 -13.683,13.684 10.368,1.83 11.852,3.314 13.683,13.683 1.831,-10.369 3.315,-11.853 13.683,-13.683"
           style="fill:#ffd34e;fill-opacity:1;fill-rule:nonzero;stroke:none"
           id="path8514"
           inkscape:connector-curvature="0" /><path
           d="m 374.96,34.297 c -10.368,-1.831 -11.853,-3.315 -13.683,-13.684 -1.831,10.369 -3.314,11.853 -13.683,13.684 10.369,1.83 11.852,3.314 13.683,13.682 1.83,-10.368 3.315,-11.852 13.683,-13.682"
           style="fill:#ffd34e;fill-opacity:1;fill-rule:nonzero;stroke:none"
           id="path8516"
           inkscape:connector-curvature="0" /><path
           d="m 480.017,457.605 c -12.078,-2.132 -13.806,-3.861 -15.939,-15.938 -2.132,12.077 -3.86,13.806 -15.938,15.938 12.078,2.132 13.806,3.861 15.938,15.938 2.133,-12.077 3.861,-13.806 15.939,-15.938"
           style="fill:#ffd34e;fill-opacity:1;fill-rule:nonzero;stroke:none"
           id="path8518"
           inkscape:connector-curvature="0" /><path
           d="m 85.65,271.409 c -7.503,-1.325 -8.576,-2.398 -9.901,-9.901 -1.325,7.503 -2.398,8.576 -9.901,9.901 7.503,1.324 8.576,2.398 9.901,9.901 1.325,-7.503 2.398,-8.577 9.901,-9.901"
           style="fill:#ffd34e;fill-opacity:1;fill-rule:nonzero;stroke:none"
           id="path8520"
           inkscape:connector-curvature="0" /><path
           d="m 492.318,238.51 c -7.502,-1.324 -8.576,-2.399 -9.9,-9.901 -1.325,7.502 -2.398,8.577 -9.901,9.901 7.503,1.325 8.576,2.398 9.901,9.901 1.324,-7.503 2.398,-8.576 9.9,-9.901"
           style="fill:#ffd34e;fill-opacity:1;fill-rule:nonzero;stroke:none"
           id="path8522"
           inkscape:connector-curvature="0" /><path
           d="m 489.918,414.021 c -7.503,-1.324 -8.576,-2.398 -9.901,-9.901 -1.325,7.503 -2.399,8.577 -9.901,9.901 7.502,1.325 8.576,2.398 9.901,9.901 1.325,-7.503 2.398,-8.576 9.901,-9.901"
           style="fill:#ffd34e;fill-opacity:1;fill-rule:nonzero;stroke:none"
           id="path8524"
           inkscape:connector-curvature="0" /><path
           d="m 153.16,428.129 c -3.009,-0.53 -3.439,-0.961 -3.971,-3.969 -0.53,3.008 -0.961,3.439 -3.969,3.969 3.008,0.532 3.439,0.962 3.969,3.971 0.532,-3.009 0.962,-3.439 3.971,-3.971"
           style="fill:#ffffff;fill-opacity:1;fill-rule:nonzero;stroke:none"
           id="path8526"
           inkscape:connector-curvature="0" /><path
           d="m 452.109,207.896 c -3.007,-0.532 -3.438,-0.962 -3.969,-3.971 -0.532,3.009 -0.961,3.439 -3.97,3.971 3.009,0.53 3.438,0.96 3.97,3.969 0.531,-3.009 0.962,-3.439 3.969,-3.969"
           style="fill:#ffffff;fill-opacity:1;fill-rule:nonzero;stroke:none"
           id="path8528"
           inkscape:connector-curvature="0" /><path
           d="m 56.36,294.938 c -4.582,-0.81 -5.238,-1.465 -6.047,-6.047 -0.809,4.582 -1.464,5.237 -6.047,6.047 4.583,0.808 5.238,1.464 6.047,6.046 0.809,-4.582 1.465,-5.238 6.047,-6.046"
           style="fill:#ffffff;fill-opacity:1;fill-rule:nonzero;stroke:none"
           id="path8530"
           inkscape:connector-curvature="0" /><path
           d="m 50.313,34.297 c -4.582,-0.81 -5.238,-1.465 -6.047,-6.047 -0.808,4.582 -1.465,5.237 -6.047,6.047 4.582,0.808 5.239,1.465 6.047,6.047 0.809,-4.582 1.465,-5.239 6.047,-6.047"
           style="fill:#ffffff;fill-opacity:1;fill-rule:nonzero;stroke:none"
           id="path8532"
           inkscape:connector-curvature="0" /><path
           d="m 75.474,225.188 c -10.096,-1.783 -11.541,-3.228 -13.323,-13.323 -1.782,10.095 -3.227,11.54 -13.322,13.323 10.095,1.782 11.54,3.227 13.322,13.322 1.782,-10.095 3.227,-11.54 13.323,-13.322"
           style="fill:#ffffff;fill-opacity:1;fill-rule:nonzero;stroke:none"
           id="path8534"
           inkscape:connector-curvature="0" /><path
           d="M 214.063,75.678 C 203.967,73.896 202.522,72.45 200.74,62.354 c -1.782,10.096 -3.227,11.542 -13.323,13.324 10.096,1.782 11.541,3.226 13.323,13.322 1.782,-10.096 3.227,-11.54 13.323,-13.322"
           style="fill:#ffffff;fill-opacity:1;fill-rule:nonzero;stroke:none"
           id="path8536"
           inkscape:connector-curvature="0" /><path
           d="m 448.14,54.905 c -7.362,-1.3 -8.415,-2.353 -9.715,-9.715 -1.3,7.362 -2.354,8.415 -9.715,9.715 7.361,1.3 8.415,2.354 9.715,9.716 1.3,-7.362 2.353,-8.416 9.715,-9.716"
           style="fill:#ffffff;fill-opacity:1;fill-rule:nonzero;stroke:none"
           id="path8538"
           inkscape:connector-curvature="0" /><path
           d="m 136.841,466.763 c -5.232,-0.923 -5.98,-1.672 -6.903,-6.903 -0.924,5.231 -1.673,5.98 -6.904,6.903 5.231,0.924 5.98,1.673 6.904,6.904 0.923,-5.231 1.671,-5.98 6.903,-6.904"
           style="fill:#ffd34e;fill-opacity:1;fill-rule:nonzero;stroke:none"
           id="path8540"
           inkscape:connector-curvature="0" /><path
           d="m 143.744,68.774 c -5.231,-0.923 -5.98,-1.672 -6.903,-6.903 -0.924,5.231 -1.673,5.98 -6.903,6.903 5.23,0.923 5.979,1.672 6.903,6.904 0.923,-5.232 1.672,-5.981 6.903,-6.904"
           style="fill:#ffd34e;fill-opacity:1;fill-rule:nonzero;stroke:none"
           id="path8542"
           inkscape:connector-curvature="0" /><path
           d="m 415.27,131.15 c 0,-0.23 0,-0.47 -0.02,-0.7 -0.02,-2.23 -0.23,-4.4 -0.6,-6.53 -0.08,-0.44 -0.16,-0.88 -0.25,-1.32 -1.27,-6.15 -3.87,-11.81 -7.5,-16.65 -1.45,-1.95 -3.08,-3.77 -4.85,-5.44 -0.43,-0.41 -0.88,-0.81 -1.33,-1.2 -2.37,-2.05 -4.97,-3.85 -7.75,-5.35 C 387.06,90.79 380.3,89 373.12,89 c -14.38,0 -27.08,7.2 -34.69,18.19 -1.7,2.46 -3.16,5.12 -4.31,7.93 -1.26,3.07 -2.17,6.31 -2.68,9.69 -0.32,2.07 -0.48,4.19 -0.48,6.34 0,1.34 0.06,2.68 0.19,3.99 0.18,1.95 0.5,3.86 0.94,5.72 0.78,3.33 1.96,6.5 3.49,9.47 3.47,6.8 8.75,12.53 15.19,16.57 3.9,2.44 8.23,4.27 12.85,5.33 3.05,0.71 6.24,1.08 9.5,1.08 15.73,0 29.46,-8.63 36.7,-21.41 1.41,-2.47 2.56,-5.11 3.45,-7.88 0.97,-3.04 1.61,-6.23 1.87,-9.53 0.09,-1.1 0.13,-2.21 0.13,-3.34"
           style="fill:#eb8970;fill-opacity:1;fill-rule:nonzero;stroke:none"
           id="path8544"
           inkscape:connector-curvature="0" /><path
           d="m 386.139,158.637 c 0,-3.13 -5.97,-5.667 -13.334,-5.667 -7.364,0 -13.333,2.537 -13.333,5.667 0,3.13 5.969,5.667 13.333,5.667 7.364,0 13.334,-2.537 13.334,-5.667"
           style="fill:#b77362;fill-opacity:1;fill-rule:nonzero;stroke:none"
           id="path8546"
           inkscape:connector-curvature="0" /><path
           d="m 415.27,131.15 c 0,-2.93 -0.3,-5.79 -0.87,-8.55 -23.18,-1.09 -62.27,-2.08 -82.96,2.21 -0.32,2.07 -0.48,4.19 -0.48,6.34 0,3.34 0.39,6.59 1.13,9.71 21.58,-3.94 61.97,-10.19 83.05,-6.37 0.09,-1.1 0.13,-2.21 0.13,-3.34"
           style="fill:#d1806c;fill-opacity:1;fill-rule:nonzero;stroke:none"
           id="path8548"
           inkscape:connector-curvature="0" /><g
           id="g8550"><g
             id="g8552" /><g
             id="g8562"><g
               clip-path="url(#clipPath8556)"
               id="g8560"><path
                 d="m 414.65,123.92 c -0.08,-0.44 -0.16,-0.88 -0.25,-1.32 -1.91,-9.23 -6.82,-17.36 -13.68,-23.29 -13.37,4.78 -45.18,15.33 -66.6,15.81 -1.26,3.07 -2.17,6.31 -2.68,9.69 -0.32,2.07 -0.48,4.19 -0.48,6.34 0,1.34 0.06,2.68 0.19,3.99 12.78,-2.26 63.65,-11.05 83.5,-11.22"
                 style="fill:#eb8970;fill-opacity:1;fill-rule:nonzero;stroke:none"
                 id="path8558"
                 inkscape:connector-curvature="0" /></g></g></g><g
           id="g8564"><g
             id="g8566" /><g
             id="g8576"><g
               clip-path="url(#clipPath8570)"
               id="g8574"><path
                 d="m 402.05,100.51 c -0.43,-0.41 -0.88,-0.81 -1.33,-1.2 C 393.33,92.88 383.68,89 373.12,89 c -14.38,0 -27.08,7.2 -34.69,18.19 18.09,-5.85 46.63,-9.92 63.62,-6.68"
                 style="fill:#bf7561;fill-opacity:1;fill-rule:nonzero;stroke:none"
                 id="path8572"
                 inkscape:connector-curvature="0" /></g></g></g><g
           id="g8578"><g
             id="g8580" /><g
             id="g8590"><g
               clip-path="url(#clipPath8584)"
               id="g8588"><path
                 d="m 415.27,131.15 c 0,-0.23 0,-0.47 -0.02,-0.7 -14.4,5.19 -56.53,17.84 -79.67,19.88 3.47,6.8 8.75,12.53 15.19,16.57 13.51,-4.52 38.06,-14.8 59.05,-15 2.95,-5.21 4.83,-11.12 5.32,-17.41 0.09,-1.1 0.13,-2.21 0.13,-3.34"
                 style="fill:#bf7561;fill-opacity:1;fill-rule:nonzero;stroke:none"
                 id="path8586"
                 inkscape:connector-curvature="0" /></g></g></g><g
           id="g8592"><g
             id="g8594" /><g
             id="g8604"><g
               clip-path="url(#clipPath8598)"
               id="g8602"
               style="opacity:0.5"><path
                 d="m 413.27,144.02 c -2.47,-0.49 -5.12,-0.53 -7.94,-0.02 -17.09,3.11 -33,18.38 -41.71,28.23 3.05,0.71 6.24,1.08 9.5,1.08 15.73,0 29.46,-8.63 36.7,-21.41 1.41,-2.47 2.56,-5.11 3.45,-7.88"
                 style="fill:#bf7561;fill-opacity:1;fill-rule:nonzero;stroke:none"
                 id="path8600"
                 inkscape:connector-curvature="0" /></g></g></g><g
           id="g8606"><g
             id="g8608" /><g
             id="g8618"><g
               clip-path="url(#clipPath8612)"
               id="g8616"
               style="opacity:0.5"><path
                 d="m 363.079,108.924 c 0,-4.087 -3.897,-7.401 -8.706,-7.401 -4.809,0 -8.706,3.314 -8.706,7.401 0,4.087 3.897,7.4 8.706,7.4 4.809,0 8.706,-3.313 8.706,-7.4"
                 style="fill:#b77362;fill-opacity:1;fill-rule:nonzero;stroke:none"
                 id="path8614"
                 inkscape:connector-curvature="0" /></g></g></g><g
           id="g8620"><g
             id="g8622" /><g
             id="g8632"><g
               clip-path="url(#clipPath8626)"
               id="g8630"
               style="opacity:0.5"><path
                 d="m 406.9,105.95 c -1.45,-1.95 -3.08,-3.77 -4.85,-5.44 -0.43,-0.41 -0.88,-0.81 -1.33,-1.2 -2.37,-2.05 -4.97,-3.85 -7.75,-5.35 -0.44,1.27 -0.68,2.67 -0.68,4.14 0,5.88 3.9,10.66 8.71,10.66 2.27,0 4.34,-1.07 5.9,-2.81"
                 style="fill:#986356;fill-opacity:1;fill-rule:nonzero;stroke:none"
                 id="path8628"
                 inkscape:connector-curvature="0" /></g></g></g></g></g></g></svg>